{"title":"Cool.2004.DVDRip.XViD-SPRiNTER","uid":6173126,"size":741885380,"categoryP":"video","categoryS":"movies","magnet":"?xt=urn:btih:d580ac68ee8b2061141c53547eb918436f6cbbbc&amp;dn=Cool.2004.DVDRip.XViD-SPRiNTER&amp;tr=udp%3A%2F%2Ftracker.openbittorrent.com%3A80&amp;tr=udp%3A%2F%2Fopen.demonii.com%3A1337&amp;tr=udp%3A%2F%2Ftracker.coppersurfer.tk%3A6969&amp;tr=udp%3A%2F%2Fexodus.desync.com%3A6969","seeders":0,"leechers":1,"uploader":"sceneline","files":57,"time":1297662087,"description":"- &lt;a href=&quot;\nhttp://www.torrentkit.com&quot; rel=&quot;nofollow&quot; target=&quot;_NEW&quot;&gt;\nhttp://www.torrentkit.com&lt;/a&gt;  \n\nwho care what we share! support us by seeding back,\nand don't forget to visit www.torrentkit.com\n-\n                                                     \n                                                   \n                                                         \n                                                          \n                                                           \n                                                          \n                                                          \n                                                          \n                                                           \n                                                         \n                                                          \n                                                        \n                                                      \n                                     \n                                                 \n                                                   \n                                             \n                                              \n                                                     \n                                                      \n                                                      \n                                                      \n                                                    \n                                                     \n                                                   \n                                                     \n                                                     \n                                                      \n                                                     \n                                                      \n                                                    \n                 ARTiCHOKE                        \n                                                \n                      \n                                                        \n                                                      \n                                                      \n                                               \n                                          \n                                                   \n                                            \n                                                    \n                                                       \n                                                        \n                                                      \n                                                \n                                                        \n                                                 \n                                              \n                                                  \n                                                \n                                                  \n                                        \n\n      \n                                \n      SPRiNTER proudly presents...     \n                                \n      \n \nCool.2004.DVDRip.XViD-SPRiNTER &lt;a href=&quot;\nhttp://www.imdb.com/title/tt0382615/&quot; rel=&quot;nofollow&quot; target=&quot;_NEW&quot;&gt;\nhttp://www.imdb.com/title/tt0382615/&lt;/a&gt;\n\n\nDate: 2011.02\nGenre: Docu\nPlot : Director Theo van Gogh's biting urban drama follows a quartet of friends who fill their idle \n\t time committing petty crimes until a big-league gangster (Johnny de Mol) and his gal pal \n\t(Katja Schuurman) persuade them to rob a bank. After getting caught in the act, the youngsters are \n\t dispatched to a harsh, experimental reformatory where they come face to face with the realities of \n\t their hip gangsta lifestyle.\n\n\n  Fouad Mourigh  ...  Abdel  \n  Farhane El Hamchaoui  ...  Mohammed  \n  Jones Kruijne  ...  Hamid  \n  Remco Alberts  ...  Jacky  \n  Julien de Roover  ...  Jeffrey  \n  Katja Schuurman  ...  Mabel  \n  Johnny de Mol  ...  Prof  \n  Steve Hooi  \n\n\n\n      \n                 \n      Release notes     \n                 \n      \n\n     Cool!\n\n\n      \n           \n     Greetings    \n           \n      \n\n\nNTX aAF FiCO HNR CiNEFiLE AEN HUMANiSM SSF\n\n\n      \n           \n      Details     \n           \n      \n\n\nFormat                           : AVI\nFormat/Info                      : Audio Video Interleave\nFile size                        : 695 MiB\nDuration                         : 1h 37mn\nOverall bit rate                 : 996 Kbps\nWriting application              : Nandub v1.0rc2\nWriting library                  : Nandub build 1852/release\n\nVideo\nID                               : 0\nFormat                           : MPEG-4 Visual\nFormat profile                   : AdvancedSimple@L5\nFormat settings, BVOP            : No\nFormat settings, QPel            : No\nFormat settings, GMC             : No warppoints\nFormat settings, Matrix          : Default (H.263)\nCodec ID                         : XVID\nCodec ID/Hint                    : XviD\nDuration                         : 1h 37mn\nBit rate                         : 832 Kbps\nWidth                            : 576 pixels\nHeight                           : 320 pixels\nDisplay aspect ratio             : 16:9\nFrame rate                       : 23.976 fps\nResolution                       : 24 bits\nColorimetry                      : 4:2:0\nScan type                        : Progressive\nBits/(Pixel*Frame)               : 0.188\nStream size                      : 581 MiB (84%)\nWriting library                  : XviD 1.2.1 (UTC 2008-12-04)\n\nAudio\nID                               : 1\nFormat                           : MPEG Audio\nFormat version                   : Version 1\nFormat profile                   : Layer 3\nCodec ID                         : 55\nCodec ID/Hint                    : MP3\nDuration                         : 1h 37mn\nBit rate mode                    : Variable\nBit rate                         : 151 Kbps\nChannel(s)                       : 2 channels\nSampling rate                    : 48.0 KHz\nResolution                       : 16 bits\nStream size                      : 106 MiB (15%)\nAlignment                        : Aligned on interleaves\nInterleave, duration             : 24 ms (0.58 video frame)\nInterleave, preload duration     : 140 ms\nWriting library                  : LAME3.89 (alpha)","torrent":{"xt":"urn:btih:d580ac68ee8b2061141c53547eb918436f6cbbbc","amp;dn":"Cool.2004.DVDRip.XViD-SPRiNTER","amp;tr":["udp%3A%2F%2Ftracker.openbittorrent.com%3A80","udp%3A%2F%2Fopen.demonii.com%3A1337","udp%3A%2F%2Ftracker.coppersurfer.tk%3A6969","udp%3A%2F%2Fexodus.desync.com%3A6969"],"infoHash":"d580ac68ee8b2061141c53547eb918436f6cbbbc","infoHashBuffer":{"type":"Buffer","data":[213,128,172,104,238,139,32,97,20,28,83,84,126,185,24,67,111,108,187,188]},"announce":[],"urlList":[]}}